HIERARCHY
ROOT Hips
{
	OFFSET -3.958830 18.904000 13.208200
	CHANNELS 6 Xposition Yposition Zposition Zrotation Yrotation Xrotation 
	JOINT LHipJoint
	{
		OFFSET 0.000000 0.000000 0.000000
		CHANNELS 3 Zrotation Yrotation Xrotation
		JOINT LeftUpLeg
		{
			OFFSET 1.800000 -1.400000 0.085000
			CHANNELS 3 Zrotation Yrotation Xrotation
			JOINT LeftLeg
			{
				OFFSET 2.215000 -6.000000 0.000000
				CHANNELS 3 Zrotation Yrotation Xrotation
				JOINT LeftFoot
				{
					OFFSET 2.500000 -6.900000 0.000000
					CHANNELS 3 Zrotation Yrotation Xrotation
					JOINT LeftToeBase
					{
						OFFSET 0.200000 -0.500000 1.950000
						CHANNELS 3 Zrotation Yrotation Xrotation
						End Site
						{
							OFFSET 0.000000 0.000000 0.000000
						}
					}
				}
			}
		}
	}
	JOINT RHipJoint
	{
		OFFSET 0.000000 0.000000 0.000000
		CHANNELS 3 Zrotation Yrotation Xrotation
		JOINT RightUpLeg
		{
			OFFSET -1.800000 -1.400000 0.085000
			CHANNELS 3 Zrotation Yrotation Xrotation
			JOINT RightLeg
			{
				OFFSET -2.215000 -6.000000 0.000000
				CHANNELS 3 Zrotation Yrotation Xrotation
				JOINT RightFoot
				{
					OFFSET -2.500000 -6.900000 0.000000
					CHANNELS 3 Zrotation Yrotation Xrotation
					JOINT RightToeBase
					{
						OFFSET -0.200000 -0.500000 1.950000
						CHANNELS 3 Zrotation Yrotation Xrotation
						End Site
						{
							OFFSET 0.000000 0.000000 0.000000
						}
					}
				}
			}
		}
	}
	JOINT LowerBack
	{
		OFFSET 0.000000 0.000000 0.000000
		CHANNELS 3 Zrotation Yrotation Xrotation
		JOINT Spine
		{
			OFFSET -0.087000 1.940000 -0.288900
			CHANNELS 3 Zrotation Yrotation Xrotation
			JOINT Spine1
			{
				OFFSET 0.000000 1.950000 0.060000
				CHANNELS 3 Zrotation Yrotation Xrotation
				JOINT Neck
				{
					OFFSET 0.000000 0.000000 0.000000
					CHANNELS 3 Zrotation Yrotation Xrotation
					JOINT Neck1
					{
						OFFSET 0.000000 1.600000 0.340000
						CHANNELS 3 Zrotation Yrotation Xrotation
						JOINT Head
						{
							OFFSET 0.000000 1.667000 -0.240000
							CHANNELS 3 Zrotation Yrotation Xrotation
							End Site
							{
								OFFSET 0.000000 0.000000 0.000000
							}
						}
					}
				}
				JOINT LeftShoulder
				{
					OFFSET 0.000000 0.000000 0.000000
					CHANNELS 3 Zrotation Yrotation Xrotation
					JOINT LeftArm
					{
						OFFSET 2.700000 1.550000 -0.730000
						CHANNELS 3 Zrotation Yrotation Xrotation
						JOINT LeftForeArm
						{
							OFFSET 5.450000 0.000000 0.000000
							CHANNELS 3 Zrotation Yrotation Xrotation
							JOINT LeftHand
							{
								OFFSET 3.450000 0.000000 0.000000
								CHANNELS 3 Zrotation Yrotation Xrotation
								JOINT LeftHandIndex1
								{
									OFFSET 0.750000 0.000000 0.000000
									CHANNELS 3 Zrotation Yrotation Xrotation
									End Site
									{
										OFFSET 0.000000 0.000000 0.000000
									}
								}
							}
						}
					}
				}
				JOINT RightShoulder
				{
					OFFSET 0.000000 0.000000 0.000000
					CHANNELS 3 Zrotation Yrotation Xrotation
					JOINT RightArm
					{
						OFFSET -2.700000 1.550000 -0.730000
						CHANNELS 3 Zrotation Yrotation Xrotation
						JOINT RightForeArm
						{
							OFFSET -5.450000 0.000000 0.000000
							CHANNELS 3 Zrotation Yrotation Xrotation
							JOINT RightHand
							{
								OFFSET -3.450000 0.000000 0.000000
								CHANNELS 3 Zrotation Yrotation Xrotation
								JOINT RightHandIndex1
								{
									OFFSET -0.750000 0.000000 0.000000
									CHANNELS 3 Zrotation Yrotation Xrotation
									End Site
									{
										OFFSET 0.000000 0.000000 0.000000
									}
								}
							}
						}
					}
				}
			}
		}
	}
}
MOTION
Frames: 7
Frame Time: 0.016667
-0.487750 16.410510 -0.689240 -5.539390 -21.253261 15.467258 -15.825482 10.042196 6.269920 26.216085 -6.033131 -46.433678 -30.880556 19.825392 32.564648 0.870815 10.746043 1.072881 0.508130 0.010460 0.605770 18.369992 -7.188278 3.972502 -14.674804 7.990675 -47.854668 16.206825 -13.661758 38.453324 -0.659257 -6.904865 2.009874 0.042240 0.364790 0.413440 -3.285350 -3.323881 -9.461217 8.631153 0.377888 22.910955 4.379985 2.338458 -1.899350 -4.443050 -8.031135 -5.898901 -15.641674 5.048521 21.776258 -13.226810 9.537200 -0.617750 -10.007027 5.864770 -1.731660 -17.662613 -9.692589 -2.337555 25.796002 -64.305247 -14.295427 -3.801838 3.337279 0.251780 0.421100 -0.161220 0.314340 18.760832 0.040702 4.300720 45.918923 -10.046441 -11.969196 32.360174 39.857433 7.242239 1.972475 -2.094323 -0.142380 -0.032790 -0.289840 -0.230060 
-0.502650 16.263590 -0.730780 -5.142918 -21.039416 15.198920 -15.933437 9.421110 6.672394 28.965957 -5.547185 -48.764214 -37.551878 22.523230 31.846066 1.082569 11.568489 0.847477 0.538610 0.013780 0.684210 18.391385 -6.647307 4.209241 -19.283721 7.281608 -49.875722 21.553195 -16.899780 39.430752 -0.921507 -7.958370 1.645088 0.059460 0.318980 0.394950 -3.284708 -3.303701 -9.841682 9.243890 0.025013 24.839723 4.994490 2.283099 -1.390217 -4.202267 -8.015280 -6.415058 -15.396239 5.326541 21.872274 -14.093950 9.832200 -2.702330 -11.015520 3.981156 -1.291472 -13.521411 -6.002806 -2.636338 16.587460 -62.221579 -8.593917 -3.791248 3.380753 0.342610 0.377430 -0.122370 0.292710 19.375240 2.122818 4.938439 44.825161 -9.662222 -12.400395 33.076809 44.886768 8.874982 1.934477 -2.110272 -0.186020 -0.000060 -0.300890 -0.279900 
-0.514030 16.115660 -0.767830 -4.751078 -20.935123 14.422500 -16.054288 9.020394 6.944784 30.866240 -4.994325 -50.462842 -43.374719 24.640104 30.842161 1.294289 12.050984 0.697369 0.576250 0.043640 0.776380 18.365957 -6.163168 4.435896 -23.217695 6.484184 -51.182980 26.198141 -19.800608 40.124879 -1.184214 -8.821785 1.344861 0.053280 0.209380 0.416120 -3.155048 -3.492534 -10.167546 9.312121 -0.021958 27.254541 6.180645 2.420737 -0.490165 -3.626023 -7.961316 -7.063174 -15.171742 4.937046 22.345585 -16.375410 10.247310 -5.265550 -12.511356 1.645616 -0.765753 -9.933591 -2.740866 -2.832670 7.885249 -59.472682 -3.567273 -3.766747 3.428840 0.396330 0.319470 -0.040970 0.247680 19.858265 4.799070 5.886970 43.274622 -9.603574 -13.130663 34.233364 50.585960 10.856028 1.918605 -2.147410 -0.149390 -0.032660 -0.317130 -0.319460 
-0.538980 15.964580 -0.796680 -4.436330 -20.990961 13.799809 -16.166792 8.719524 7.133697 32.401334 -4.054084 -51.743039 -48.408599 26.283520 29.423097 1.501283 12.329182 0.612313 0.580240 0.044300 0.809940 18.333994 -5.725874 4.666118 -26.494888 5.922928 -52.425803 30.273149 -22.310542 40.564380 -1.406517 -9.526314 1.110401 0.013020 0.130120 0.477670 -3.014346 -3.704867 -10.440200 9.238149 0.231554 29.230325 7.324866 2.708265 0.023426 -3.084624 -7.708947 -7.613207 -14.607709 4.629010 22.816081 -18.445700 10.932650 -6.259820 -13.884060 -0.156761 -0.206166 -7.457785 -0.048054 -2.702929 0.286624 -56.978358 0.398004 -3.771945 3.532369 0.395190 0.296650 0.018270 0.210840 20.321671 6.794650 6.671043 42.113854 -9.825458 -13.866547 35.270473 56.851196 13.151312 1.906542 -2.227050 -0.074560 -0.114770 -0.313240 -0.329120 
-0.567430 15.817420 -0.810810 -4.184669 -20.954349 12.833711 -16.222454 8.569059 7.190416 33.184375 -3.309492 -51.868965 -51.984389 27.264926 28.156583 1.618774 12.449711 0.592161 0.566160 0.028720 0.820120 18.320165 -5.441441 4.845419 -29.155302 5.461595 -52.833558 34.043702 -24.589849 40.857598 -1.591082 -10.089486 0.956071 -0.015990 0.099880 0.475380 -2.951023 -3.874608 -10.611465 9.632769 0.171457 31.557919 7.970208 2.894937 0.090583 -2.783608 -7.647947 -8.282506 -14.431198 4.937845 23.084253 -19.070160 11.315500 -7.044080 -14.094399 -1.602801 0.553227 -6.349151 1.934027 -2.444443 -7.852830 -53.811144 4.100225 -3.752601 3.564845 0.412140 0.271120 0.041940 0.190280 20.129609 8.413614 7.232066 41.656485 -9.451094 -14.308275 37.372389 62.210157 15.855655 1.911336 -2.253592 -0.061180 -0.122320 -0.307240 -0.335140 
-0.585200 15.704110 -0.804600 -3.735182 -20.650669 11.842075 -16.238672 8.547118 7.154276 32.808907 -3.178616 -51.897592 -53.239054 28.055791 28.294321 1.695127 12.549454 0.553945 0.569560 0.020520 0.840950 18.312177 -5.299115 4.967702 -31.508115 4.901982 -52.411819 37.458920 -26.169226 40.241582 -1.707716 -10.425464 0.838766 -0.036500 0.054560 0.503010 -2.913708 -4.012222 -10.684240 10.267835 0.002339 33.558112 8.374666 3.102213 -0.337770 -2.610982 -7.627992 -8.628321 -14.251806 5.236751 22.978227 -19.924450 11.847590 -7.118120 -15.537126 -3.063737 0.984962 -5.097276 2.944915 -2.121130 -14.158565 -49.985273 6.470046 -3.744932 3.641135 0.408530 0.256170 0.057290 0.164850 21.399812 9.924804 7.650674 39.989606 -9.050997 -14.449188 38.758426 66.930206 18.135966 1.910637 -2.341597 -0.027460 -0.185040 -0.307870 -0.345400 
-0.592200 15.631280 -0.802850 -3.233125 -19.943061 10.157307 -16.218067 8.680183 7.048619 31.733645 -3.603517 -51.265914 -52.750535 28.783814 29.714958 1.747876 12.662981 0.497914 0.571020 0.033490 0.826140 18.304606 -5.305535 4.991245 -33.188995 4.574372 -50.914266 39.537206 -27.132959 39.965556 -1.789142 -10.601523 0.777125 -0.049810 0.016610 0.503020 -2.884963 -4.165983 -10.677646 11.160975 -0.431253 35.954231 8.458610 3.133839 -0.222746 -2.377448 -7.997705 -9.273768 -15.061025 5.852882 23.522424 -19.745900 11.526150 -8.200690 -16.746686 -5.154190 1.702525 -4.927715 3.701571 -2.348506 -18.829176 -46.230432 7.605299 -3.702504 3.649419 0.423580 0.212720 0.082890 0.147350 22.289975 12.286668 8.217001 39.030274 -8.008398 -15.341243 37.365241 71.149823 18.479749 1.896064 -2.362555 0.003240 -0.197920 -0.291410 -0.336510 
